<?xml version="1.0" encoding="UTF-8"?>
<svg id="Livello_2" data-name="Livello 2" xmlns="http://www.w3.org/2000/svg" viewBox="0 0 760 822.94">
  <defs>
    <style>
      .cls-1 {
        fill: #fff9f9;
        opacity: .6;
        stroke-width: 0px;
      }
    </style>
  </defs>
  <g id="Livello_1-2" data-name="Livello 1">
    <path class="cls-1" d="M245.47,550.12c3.2-1.38,6.4-2.79,9.61-4.15,8.27-3.51,16.47-6.68,25.31-8.44,8.36-1.67,16.85-2.35,25.34-2.92,17.21-1.14,33.79-2.86,50.28-8.21,17.1-5.55,33.44-13.18,49.85-20.43,14.99-6.62,30.25-12.58,45.15-19.41,29.75-13.64,58.5-29.52,85.44-48.13,26.91-18.59,51.35-39.96,74.28-63.24,44.79-45.47,87.45-94.84,113.39-153.81,6.54-14.86,11.59-30.15,16.11-45.72,5.13-17.68,10.08-35.48,12.94-53.7,2.88-18.37,2.59-36.62,2.32-55.15-.12-8.32-.27-16.68.95-24.93,1.06-7.16,2.52-14.25,3.2-21.46.6-6.4.67-13.16-1.89-19.18-.52-1.22-1.74-1.65-2.92-.87-22.55,14.9-40.7,35.28-62.28,51.44-11.89,8.9-24.52,16.94-36.81,25.27-12.48,8.45-25.06,16.75-37.87,24.7-47.46,29.46-97.31,55.42-138.69,93.55-21.38,19.7-40.42,41.83-61.25,62.1-10.45,10.17-21.27,19.86-33.02,28.52-11.21,8.26-22.84,15.94-33.98,24.28-10.92,8.17-21.33,16.98-29.97,27.58-8.03,9.85-14.54,20.82-20.64,31.93-6.29,11.45-12.18,23.13-19.07,34.23-2.14,3.44-4.35,6.84-6.61,10.21-.42.43-.86.83-1.28,1.26-14.19,14.57-27.06,30.28-39.49,46.34-13.1,16.87-25.42,34.4-39.55,50.43-14.65,16.58-30.77,31.84-48.33,45.34-17.21,13.21-35.84,24.18-56.33,31.41-2.04.72-4.12,1.41-6.16,2.1-1.9.47-3.79.95-5.69,1.43,7.68-4.58,14.79-10.21,21.33-16.12,1.7-1.54,3.37-3.1,5.01-4.7,20.64-16.58,39.62-35.69,55.52-56.45,24.3-31.75,38.77-69.37,48.76-107.72,5-19.18,10.25-39.24,11.39-59.24,5.92-16.1,13.6-31.56,21.38-46.82,20.87-40.97,40.44-83.22,48.02-128.97,3.69-22.26,4.62-45.2.35-67.43-2.21-11.52-6.45-22.25-9.81-33.43-3.53-11.72-4.63-23.88-6.58-35.91-.97-5.98-2.22-11.89-4-17.69-.16-.51-.65-.94-1.21-.72-14.55,5.8-23.4,22.68-30.61,35.56-9.92,17.72-20.43,35.11-29.7,53.19-5.54,10.81-10.91,21.71-16.67,32.4-6.05,11.23-12.64,22.17-19.12,33.16-13,22.03-26.12,44-38.81,66.22-11.95,20.93-24.54,41.97-33.37,64.45-8.41,21.42-13.61,43.99-16.69,66.76-3.22,23.81-5.04,48.03-3.9,72.04.6,12.76,1.43,25.5,2.14,38.25.66,11.75,1.43,23.81.07,35.54-4.09,35.24-26.65,68.98-55.53,89.73-6.17,2.75-16.12,7.54-25.8,12.09v13.21c8.75-3.48,17.5-7.17,26.14-11.11,5.58-1.01,11.28-1.64,16.49-3.91.52-.2,1.01-.46,1.5-.69,15.08-.26,30.31,1.96,44.59,5.84,26.02,7.11,50.84,19.2,72.54,35.18,11.4,8.38,21.79,18.08,32.44,27.35,11.69,10.13,23.4,20.27,35.32,30.14,23.98,19.92,48.76,38.92,75.36,55.21,15.23,9.33,31.06,17.62,46.92,25.88,16.95,8.84,33.68,18.42,49.86,28.61,3.48,2.19,9.1-2.71,7.05-6.51-7.34-13.82-7.8-29.71-9.41-44.96-1.58-15.31-4.82-29.56-12.78-42.73,5.58,1.15,11.16,2.23,16.73,3.24,25.34,4.6,51.02,7.35,76.78,7.7,25.91.35,51.92-.51,77.75-2.57,23.84-1.9,47.32-5.54,70.93-9.2,18.63-2.89,37.35-5.38,55.71-9.76,17.69-4.23,35.83-10.12,50.74-20.83,3.44-2.47,6.66-5.2,9.63-8.23.95-.96,2-3.43-.16-3.78-18.6-2.99-35.75-13.14-50.91-23.83-15.71-11.09-30.21-23.79-45.97-34.8-7.67-5.36-15.66-10.33-24.16-14.28-9.78-4.55-20.29-7.53-30.57-10.72-23.91-7.42-48.09-13.94-72.03-21.3-12.27-3.77-24.47-7.74-36.52-12.16-11.51-4.22-22.68-9.34-34.37-13.07-22.46-7.17-45.95-9.56-69.43-9.94l-134.7,5.45ZM78.56,537.5c6.9-20.06,6.67-41.14,6.03-62.11-.77-25.15-2.62-50.28-1.4-75.46,1.13-23.23,4.33-46.64,10.18-69.16,3.02-11.63,6.88-23.05,11.6-34.11,4.89-11.42,10.91-22.32,16.87-33.2,12.26-22.38,25.15-44.4,38.11-66.38,12.85-21.79,26.18-43.37,37.81-65.86,5.67-10.97,11.09-22.06,16.87-32.97,5.01-9.47,10.67-18.53,15.92-27.86,8.38-14.9,15.6-31.79,28.14-43.78,2.53-2.42,5.35-4.49,8.53-5.94,3.36,10.93,4.71,22.25,6.58,33.5.97,5.84,2.06,11.66,3.66,17.36,1.6,5.67,3.76,11.15,5.4,16.8,6.49,22.33,7.31,45.74,4.75,68.78-5.02,45.27-22.58,88.75-43.11,129.03-8.49,16.67-17.29,33.27-24.48,50.55-.26-13.29-.81-25.94,2.05-39.13,2.94-13.41,7.4-26.45,10.79-39.75.81-3.11-2.53-8.32-5.44-4.49-11.34,14.94-17.62,32.38-26.31,48.85-9.96,18.85-23.83,35.32-35,53.43-11.14,18.11-21.07,36.62-32.87,54.35-10.77,16.21-21.5,32.93-27.32,51.64-5.99,19.2-6.45,39.32-11.14,58.75-5.04,21.04-17.16,39.18-32.3,54.32-4.37,4.37-8.96,8.56-13.63,12.69,13.18-14.55,23.49-31.8,29.7-49.86ZM331.74,550.07c11.63-.3,23.27-.64,34.9-.72,23.36-.16,46.8,1.04,69.55,6.73,12.2,3.05,23.62,7.82,35.3,12.35,11.23,4.35,22.64,8.26,34.11,11.93,23.45,7.5,47.21,13.99,70.8,21.05,20.54,6.14,40.94,11.91,59.09,23.64,30.88,19.96,56.63,50.7,92.79,61.52,3.32.99,6.69,1.67,10.09,2.24-12.31,11.51-28.63,18.17-44.66,22.6-18.38,5.09-37.31,7.72-56.15,10.4-22.2,3.15-44.23,7.06-66.56,9.24-25.19,2.46-50.5,3.51-75.8,3.7-38.21.28-75.88-4.2-112.97-12.35-17.64-25.13-43.95-43.73-67.81-62.37-12.58-9.79-25.39-18.77-39.72-25.85-14.13-6.99-29.02-12.29-44.21-16.35-30.74-8.2-62.41-11.57-93.96-14.88-6.8-.7-13.61-1.44-20.43-2.14,2.9-.49,5.75-1.11,8.51-1.77,13.01-3.09,25.55-7.93,37.89-13.02,14.67-6.04,29.21-12.38,43.73-18.76,5.08-1.33,10.18-2.58,15.3-3.79,23.97-5.69,48.25-10.44,72.83-12.4l37.39-1ZM754.46,25.7c-.94,7.07-2.45,14.06-3.26,21.16-1.97,17.25.26,34.89-.41,52.21-.71,18.22-4.31,36.15-8.88,53.76-4.33,16.68-8.93,33.49-14.93,49.66-22.02,59.33-62.22,109.77-105.24,155.3-22.08,23.38-44.92,45.74-70.65,65.12-25.47,19.18-52.92,35.67-81.42,49.93-14.7,7.35-29.7,14.1-44.91,20.33-15.62,6.4-30.89,13.6-46.5,20.03-16.1,6.62-32.71,11.57-50.08,13.3-16.29,1.62-32.84.95-48.93,4.36-10.06,2.13-19.79,5.95-29.33,10.18,2.39-1.54,4.78-3.08,7.18-4.59,20.09-12.64,41.83-21.73,63.79-30.54,9.84-3.94,19.66-7.94,29.22-12.52,10.28-4.92,20.21-11.51,29.25-18.45,10.28-7.92,19.49-16.78,28.61-26.02,8.95-9.07,17.96-18.08,26.57-27.49,17.16-18.71,34.6-38.26,48.27-59.7,6.22-9.79,12.58-19.49,17.27-30.11,4.35-9.84,7.69-20.06,10.33-30.48,5.38-21.04,7.71-42.78,12.18-64.05,1.04-4.92,2.22-9.82,3.54-14.68.92-3.25-2.91-4.4-4.55-1.73-20.75,33.71-52.88,58.29-85.78,79.42-18.02,11.54-36.64,22.14-54.81,33.48-19.83,12.38-39.38,25.25-58.15,39.21-12.22,9.09-24,18.69-35.19,28.94,1.5-2.51,3-5.04,4.43-7.59,12.8-22.87,23.72-47.32,43.3-65.41,20.83-19.25,46.08-32.86,67.48-51.41,22.08-19.14,41.63-41,62.02-61.86,19.83-20.28,41.43-38.25,64.93-54.14,22.94-15.51,46.96-29.34,70.81-43.39,25.74-15.16,50.44-31.75,75.06-48.64,11.51-7.89,22.78-15.81,33.35-24.95,10.38-8.98,20.32-18.47,30.87-27.26,4.53-3.78,9.22-7.35,14.07-10.7,2,6.13,1.34,13.09.51,19.34Z"/>
  </g>
</svg>