<?xml version="1.0" encoding="utf-8"?>
<!-- Generator: Adobe Illustrator 28.3.0, SVG Export Plug-In . SVG Version: 6.00 Build 0)  -->
<svg version="1.1" id="Livello_1" xmlns="http://www.w3.org/2000/svg" xmlns:xlink="http://www.w3.org/1999/xlink" x="0px" y="0px"
	 viewBox="0 0 1920 639" style="enable-background:new 0 0 1920 639;" xml:space="preserve">
<style type="text/css">
	.st0{fill:#EFE6DA;}
	.st1{opacity:0.6;}
	.st2{fill:#FFFAFA;}
	.st3{fill:#E9E0D4;}
	.st4{fill:#FFF4F4;}
	.st5{opacity:0.5;fill:#C59166;}
	.st6{opacity:0.5;fill:#FFFAFA;}
	.st7{opacity:0.6;fill:#FFFAFA;}
	.st8{fill:#FFF9F9;}
	.st9{fill:#FFFFFF;}
	.st10{opacity:0.6;fill:#FFF9F9;}
</style>
<g>
	<g class="st1">
		<g>
			<path class="st8" d="M57.3,637c146-132.4,316.4-235,496-315.1c194.2-86.7,399-146.9,605.2-197.1C1264,99.1,1370.1,76.1,1476.2,53
				c99.8-21.7,200.2-44.6,294.3-85.3c80.8-34.9,156.5-83.9,214.9-150.4c27.8-31.6,51.5-67.1,68.6-105.6
				c19.4-43.7,29.1-90.3,33.8-137.7c5.2-52.5,4.9-105.2,8.2-157.8c3.1-48.7,10.3-96.8,23.1-144c24.5-90.4,67.2-175.9,125.2-249.5
				c14.3-18.2,29.6-35.6,45.7-52.3c4-4.2-2.3-10.5-6.4-6.4c-63.2,65.6-113.1,143.3-147,227.8c-17.2,43-30.3,87.6-38.7,133.2
				c-9,48.7-11.6,98-13.4,147.3c-1.9,53.3-3.3,107.1-14.3,159.5c-9.5,45.4-27,88.3-52,127.3c-47.7,74.4-118.5,132.3-195.9,173.7
				c-91.3,48.9-192.2,76.2-292.6,99c-104.9,23.9-210.2,45.5-315,70.1c-207.1,48.7-413.1,105.6-609.8,187.7
				c-178.3,74.5-349.2,169.4-498.5,292.8c-18.9,15.6-37.3,31.6-55.5,48C46.6,634.5,53,640.9,57.3,637L57.3,637z"/>
		</g>
	</g>
	<g class="st1">
		<g>
			<path class="st8" d="M-261.9,619.2c183.4-135.9,413.6-182,636.4-202.4c240.2-21.9,483.6-19.7,718.3-82.1
				C1293.2,281.5,1484,189,1645.9,59c82.3-66,155.9-141.8,220-225.6c73.2-95.7,134.9-199.5,201.1-300
				c128.9-195.9,281-376,453.2-535.1c21.1-19.5,42.6-38.7,64.3-57.6c4.4-3.8-2-10.2-6.4-6.4c-174.5,152-330.6,324.7-464,513.8
				c-68.6,97.3-129.2,199.8-196.4,298.1C1854.3-161.1,1783.4-74.5,1700,1.1C1543.5,143,1353.3,246,1151.9,308.4
				c-108,33.4-219.1,54.1-331.4,66.3c-126.3,13.7-253.3,18.3-379.9,27.8C221,418.8-6.5,451.6-198.8,566.3
				c-23.3,13.9-45.9,29-67.7,45.2C-271.1,614.9-266.6,622.7-261.9,619.2L-261.9,619.2z"/>
		</g>
	</g>
	<g class="st1">
		<g>
			<path class="st8" d="M-375.5,526.5c211.5-154.8,489.3-95.4,730.4-75.1c134,11.3,268.6,15.7,403.1,13
				c127.4-2.5,256.4-8.5,381.1-36.8c121.4-27.6,234.2-80.8,343.8-138.5c96.7-50.9,193.1-104.4,278.6-172.9
				C1847,47.6,1917.3-36.3,1961-137.3c45.2-104.6,64.1-218,79.8-330.2c28.2-200.8,51-428.9,200.3-581.7c18.1-18.5,37.8-35.3,59-50.2
				c4.7-3.3,0.2-11.1-4.5-7.8c-168.8,119.3-220.7,335.6-248.4,528.6c-16.4,114.1-28.2,229.5-60,340.7
				c-31.4,109.8-85.2,208.6-166.5,289.4c-77.9,77.5-172,136.6-267.6,189.6c-107.8,59.7-218.5,118.2-336.2,155.9
				c-124.2,39.8-254.8,51.2-384.5,56.2c-134.4,5.2-269.1,3.4-403.3-5.3c-132.7-8.7-264.7-29.8-397.8-33.5
				c-115-3.1-233.2,9.7-338,60.2c-25.8,12.4-50.3,27.2-73.3,44C-384.7,522.1-380.2,529.9-375.5,526.5L-375.5,526.5z"/>
		</g>
	</g>
</g>
</svg>
