<?xml version="1.0" encoding="UTF-8"?>
<svg id="Livello_1" data-name="Livello 1" xmlns="http://www.w3.org/2000/svg" viewBox="0 0 1920 369">
  <defs>
    <style>
      .cls-1 {
        opacity: .6;
      }

      .cls-2 {
        fill: #fff9f9;
        stroke-width: 0px;
      }
    </style>
  </defs>
  <g class="cls-1">
    <path class="cls-2" d="M-218.59-18.48C-64.09,63.25,104.57,123.61,279.76,137.42c89.31,7.04,177.94.03,265.65-17.66,92.88-18.73,184.05-44.93,277.1-63,94.88-18.42,190.99-31.78,287.42-38.54,94.23-6.6,187.76-3.03,279.85,19.19,168.97,40.77,322.36,126.54,487.55,178.68,172.46,54.43,357.49,65.7,535.26,32.22,22.18-4.18,44.2-9.09,66.08-14.61,5.61-1.41,3.23-10.1-2.39-8.68-178.5,44.98-367.69,44.37-545.71-2.82-166.84-44.23-319.08-129.28-484.15-178.75-84.91-25.45-171.53-38.48-260.23-37.49-93.06,1.04-186.38,12.22-278.22,26.68-93.57,14.74-185.33,36.48-277.33,58.7-90.19,21.78-180.87,39.67-274.01,40C178.62,131.99,3.73,80.02-155.62,3.32c-19.67-9.47-39.13-19.36-58.43-29.57-5.12-2.71-9.67,5.06-4.54,7.77h0Z"/>
  </g>
  <g class="cls-1">
    <path class="cls-2" d="M-86.11-76.89C2.2,40.48,112.45,141.44,239.62,215.35c132.39,76.95,280.98,120.94,432.71,138.08,155.79,17.6,313.87,7.88,468.12-18.36,164.7-28.02,324.85-76.66,486.86-116.48,162.21-39.87,328.83-71.69,496.64-61.6,21.07,1.27,42.07,3.23,63.02,5.8,5.74.7,5.68-8.3,0-9-162.74-19.95-326.33,2.54-485.31,38.05-162.57,36.31-321.94,85.78-485.07,119.68-153.93,31.99-311.96,48.39-469.19,39.28-155.09-8.99-309.58-43.95-448.92-113.86C167.01,171,50.96,76.09-43.03-36.79c-12.14-14.58-23.9-29.48-35.31-44.64-3.44-4.57-11.26-.09-7.77,4.54h0Z"/>
  </g>
  <g class="cls-1">
    <path class="cls-2" d="M-403.46,112.68C-285.12,209.56-138.91,264.44,11.33,286.94c164.8,24.68,331.86,10.33,494.79-20.67,179.68-34.19,354.73-87.95,532.14-131.72,178.95-44.16,362.55-78.82,547.69-71.39,183.53,7.37,361.51,58.04,535.78,112.52,21.22,6.63,42.41,13.33,63.6,20.04,5.54,1.75,7.9-6.94,2.39-8.68-170.24-53.85-342.09-108.02-520.41-126.9-179.92-19.04-360.28,4.63-536.05,43.37-178.08,39.25-352.42,93.53-530.27,133.74-167.8,37.94-340.26,63.53-512.58,49.57-154.43-12.51-309.15-56.25-437.82-144.63-16.41-11.27-32.28-23.26-47.68-35.87-4.45-3.64-10.85,2.69-6.36,6.36h0Z"/>
  </g>
</svg>