<?xml version="1.0" encoding="UTF-8"?>
<svg id="Livello_2" data-name="Livello 2" xmlns="http://www.w3.org/2000/svg" viewBox="0 0 91.62 80.8">
  <defs>
    <style>
      .cls-1 {
        fill: #c49066;
        stroke-width: 0px;
      }
    </style>
  </defs>
  <g id="Livello_1-2" data-name="Livello 1">
    <path class="cls-1" d="M37.34,62.44c0,5.44-1.9,10.07-5.71,13.88-2.99,2.99-7.35,4.48-13.06,4.48-4.35,0-8.54-2.17-12.55-6.53-4.02-4.35-6.02-11.56-6.02-21.62,0-5.58,1.02-11.23,3.06-16.94,2.05-5.71,4.32-10.51,6.84-14.38,2.51-3.89,5.44-7.69,8.77-11.43,3.34-3.74,5.64-6.16,6.94-7.25,1.3-1.09,2.35-1.97,3.17-2.66l4.48,7.35-5.1,5.31c-3.4,3.54-6.19,8.03-8.36,13.46-1.91,4.77-2.86,9.46-2.86,14.08,0,1.22.07,2.52.21,3.87,5.99,0,10.68,1.43,14.08,4.29,4.08,3.4,6.12,8.1,6.12,14.08ZM91.62,62.44c0,5.99-1.87,10.54-5.62,13.67-3.74,3.13-7.99,4.69-12.75,4.69-4.48,0-8.8-2.17-12.96-6.53-4.15-4.35-6.22-11.56-6.22-21.62,0-5.58,1.05-11.23,3.16-16.94,2.11-5.71,4.42-10.51,6.94-14.38,2.51-3.89,5.44-7.69,8.77-11.43,3.33-3.74,5.64-6.16,6.94-7.25,1.29-1.09,2.35-1.97,3.16-2.66l4.49,7.35-5.1,5.31c-2.99,3.13-5.78,7.89-8.37,14.28-1.9,4.77-2.85,9.18-2.85,13.27-.14,1.22-.07,2.52.2,3.87,5.03,0,9.52,1.23,13.47,3.68,4.49,2.85,6.74,7.75,6.74,14.69Z"/>
  </g>
</svg>