<?xml version="1.0" encoding="UTF-8"?>
<svg id="Livello_2" data-name="Livello 2" xmlns="http://www.w3.org/2000/svg" viewBox="0 0 86.23 76.06">
  <defs>
    <style>
      .cls-1 {
        fill: #c49066;
        stroke-width: 0px;
      }
    </style>
  </defs>
  <g id="Livello_1-2" data-name="Livello 1">
    <path class="cls-1" d="M0,17.29C0,11.91,1.79,7.68,5.38,4.61,8.96,1.54,12.93,0,17.29,0s8.42,2.05,12.19,6.15c3.77,4.1,5.67,10.88,5.67,20.36,0,5.25-.96,10.57-2.88,15.94s-4.07,9.89-6.43,13.54c-2.37,3.65-5.12,7.24-8.26,10.76-3.14,3.52-5.31,5.8-6.53,6.82-1.22,1.03-2.21,1.86-2.98,2.5l-4.23-6.91,4.8-4.99c2.69-2.94,5.44-7.43,8.26-13.44,1.92-4.1,2.88-8.13,2.88-12.1,0-1.41-.13-2.76-.39-4.04-4.87,0-8.77-.96-11.71-2.88C2.56,28.49,0,23.69,0,17.29ZM51.09,17.29c0-5.25,1.79-9.47,5.38-12.68,3.59-3.07,7.55-4.61,11.91-4.61s8.26,2.05,12.1,6.15c3.84,4.1,5.76,10.88,5.76,20.36,0,5.25-.96,10.57-2.88,15.94-1.92,5.38-4.07,9.89-6.43,13.54-2.37,3.65-5.12,7.24-8.26,10.76-3.14,3.52-5.31,5.8-6.53,6.82-1.22,1.03-2.21,1.86-2.98,2.5l-4.23-7.11,4.8-4.8c2.94-3.07,5.7-7.55,8.26-13.44,1.92-4.35,2.88-8.51,2.88-12.49,0-1.15-.06-2.37-.19-3.65-4.87,0-9.16-1.21-12.87-3.65-4.48-2.82-6.72-7.36-6.72-13.64Z"/>
  </g>
</svg>